<svg width="35" height="35" viewBox="0 0 35 35" fill="none" xmlns="http://www.w3.org/2000/svg">
<g clip-path="url(#clip0_85_803)">
<path d="M17.5 5.46875C16.9592 5.46875 16.4305 5.30838 15.9809 5.00793C15.5312 4.70747 15.1807 4.28042 14.9738 3.78078C14.7668 3.28113 14.7127 2.73134 14.8182 2.20093C14.9237 1.67051 15.1841 1.18329 15.5665 0.800881C15.9489 0.418472 16.4361 0.158048 16.9666 0.0525415C17.497 -0.052965 18.0468 0.00118476 18.5464 0.208143C19.046 0.415102 19.4731 0.765573 19.7736 1.21524C20.074 1.6649 20.2344 2.19357 20.2344 2.73438C20.2335 3.45931 19.9451 4.15431 19.4325 4.66691C18.9199 5.17952 18.2249 5.46788 17.5 5.46875ZM17.5 1.09375C17.1755 1.09375 16.8583 1.18997 16.5885 1.37025C16.3187 1.55052 16.1084 1.80675 15.9843 2.10654C15.8601 2.40632 15.8276 2.7362 15.8909 3.05445C15.9542 3.3727 16.1105 3.66503 16.3399 3.89447C16.5693 4.12392 16.8617 4.28017 17.1799 4.34348C17.4982 4.40678 17.8281 4.37429 18.1278 4.25012C18.4276 4.12594 18.6839 3.91566 18.8641 3.64586C19.0444 3.37606 19.1406 3.05886 19.1406 2.73438C19.1406 2.29926 18.9678 1.88196 18.6601 1.57428C18.3524 1.2666 17.9351 1.09375 17.5 1.09375Z" fill="#FF0000"/>
<path d="M7.05918 9.79346C6.60947 9.79355 6.16667 9.68273 5.77002 9.4708C5.37338 9.25888 5.03512 8.95239 4.78523 8.5785C4.53534 8.20461 4.38152 7.77485 4.33741 7.32731C4.29329 6.87976 4.36024 6.42825 4.53233 6.01276C4.70441 5.59728 4.97632 5.23065 5.32396 4.94536C5.67159 4.66007 6.08423 4.46492 6.5253 4.37722C6.96638 4.28951 7.42228 4.31194 7.85262 4.44253C8.28295 4.57312 8.67443 4.80784 8.99238 5.12588C9.37467 5.50829 9.635 5.99545 9.74046 6.52579C9.84592 7.05613 9.79177 7.60583 9.58486 8.1054C9.37795 8.60497 9.02757 9.03198 8.57801 9.33245C8.12845 9.63291 7.5999 9.79334 7.05918 9.79346ZM7.05918 5.41846C6.73474 5.41853 6.41761 5.51479 6.14788 5.69506C5.87814 5.87534 5.66791 6.13155 5.54377 6.43129C5.41962 6.73103 5.38713 7.06085 5.45041 7.37906C5.51368 7.69726 5.66988 7.98956 5.89926 8.219C6.21164 8.51752 6.62709 8.68411 7.05918 8.68411C7.49126 8.68411 7.90671 8.51752 8.2191 8.219C8.52667 7.91134 8.69945 7.49412 8.69945 7.05908C8.69945 6.62405 8.52667 6.20682 8.2191 5.89916C8.06722 5.74622 7.88648 5.62497 7.68736 5.54245C7.48824 5.45993 7.27472 5.41778 7.05918 5.41846Z" fill="#FF0000"/>
<path d="M2.73438 20.2344C2.19357 20.2344 1.6649 20.074 1.21524 19.7736C0.765573 19.4731 0.415102 19.046 0.208143 18.5464C0.00118476 18.0468 -0.052965 17.497 0.0525415 16.9666C0.158048 16.4361 0.418472 15.9489 0.800881 15.5665C1.18329 15.1841 1.67051 14.9237 2.20093 14.8182C2.73134 14.7127 3.28113 14.7668 3.78078 14.9738C4.28042 15.1807 4.70747 15.5312 5.00793 15.9809C5.30838 16.4305 5.46875 16.9592 5.46875 17.5C5.46788 18.2249 5.17952 18.9199 4.66691 19.4325C4.15431 19.9451 3.45931 20.2335 2.73438 20.2344ZM2.73438 15.8594C2.40989 15.8594 2.09269 15.9556 1.82289 16.1359C1.55309 16.3161 1.34281 16.5724 1.21864 16.8722C1.09446 17.1719 1.06197 17.5018 1.12528 17.8201C1.18858 18.1383 1.34483 18.4307 1.57428 18.6601C1.80372 18.8895 2.09606 19.0458 2.41431 19.1091C2.73256 19.1724 3.06243 19.1399 3.36222 19.0157C3.662 18.8916 3.91823 18.6813 4.09851 18.4115C4.27878 18.1417 4.375 17.8245 4.375 17.5C4.375 17.0649 4.20215 16.6476 3.89447 16.3399C3.5868 16.0322 3.1695 15.8594 2.73438 15.8594Z" fill="#FF0000"/>
<path d="M7.05899 30.6753C6.51826 30.6752 5.98971 30.5147 5.54016 30.2143C5.0906 29.9138 4.74022 29.4868 4.53331 28.9872C4.3264 28.4877 4.27225 27.938 4.3777 27.4076C4.48316 26.8773 4.74349 26.3901 5.12578 26.0077C5.44373 25.6897 5.83521 25.455 6.26555 25.3244C6.69588 25.1938 7.15178 25.1713 7.59286 25.2591C8.03394 25.3468 8.44657 25.5419 8.79421 25.8272C9.14185 26.1125 9.41375 26.4791 9.58584 26.8946C9.75792 27.3101 9.82487 27.7616 9.78076 28.2091C9.73665 28.6567 9.58283 29.0864 9.33294 29.4603C9.08304 29.8342 8.74479 30.1407 8.34814 30.3526C7.95149 30.5646 7.5087 30.6754 7.05899 30.6753ZM7.05899 26.3003C6.84346 26.2997 6.62995 26.3419 6.43084 26.4244C6.23173 26.5069 6.05098 26.6281 5.89907 26.781C5.5915 27.0887 5.41871 27.5059 5.41871 27.9409C5.41871 28.376 5.5915 28.7932 5.89907 29.1008C6.21158 29.3991 6.62698 29.5655 7.05899 29.5655C7.49099 29.5655 7.9064 29.3991 8.21891 29.1008C8.44828 28.8714 8.60448 28.5791 8.66776 28.2609C8.73103 27.9427 8.69854 27.6129 8.5744 27.3131C8.45025 27.0134 8.24002 26.7572 7.97029 26.5769C7.70055 26.3966 7.38342 26.3004 7.05899 26.3003Z" fill="#FF0000"/>
<path d="M17.5 35C16.9592 35 16.4305 34.8396 15.9809 34.5392C15.5312 34.2387 15.1807 33.8117 14.9738 33.312C14.7668 32.8124 14.7127 32.2626 14.8182 31.7322C14.9237 31.2018 15.1841 30.7145 15.5665 30.3321C15.9489 29.9497 16.4361 29.6893 16.9666 29.5838C17.497 29.4783 18.0468 29.5324 18.5464 29.7394C19.046 29.9464 19.4731 30.2968 19.7736 30.7465C20.074 31.1962 20.2344 31.7248 20.2344 32.2656C20.2335 32.9906 19.9451 33.6856 19.4325 34.1982C18.9199 34.7108 18.2249 34.9991 17.5 35ZM17.5 30.625C17.1755 30.625 16.8583 30.7212 16.5885 30.9015C16.3187 31.0818 16.1084 31.338 15.9843 31.6378C15.8601 31.9376 15.8276 32.2674 15.8909 32.5857C15.9542 32.9039 16.1105 33.1963 16.3399 33.4257C16.5693 33.6552 16.8617 33.8114 17.1799 33.8747C17.4982 33.938 17.8281 33.9055 18.1278 33.7814C18.4276 33.6572 18.6839 33.4469 18.8641 33.1771C19.0444 32.9073 19.1406 32.5901 19.1406 32.2656C19.1406 31.8305 18.9678 31.4132 18.6601 31.1055C18.3524 30.7979 17.9351 30.625 17.5 30.625Z" fill="#FF0000"/>
<path d="M27.9408 30.6753C27.5816 30.6762 27.2258 30.6059 26.894 30.4683C26.5621 30.3308 26.2609 30.1289 26.0076 29.8741C25.5604 29.4267 25.2821 28.8381 25.2202 28.2085C25.1583 27.5789 25.3166 26.9473 25.6681 26.4214C26.0197 25.8955 26.5427 25.5077 27.1481 25.3241C27.7535 25.1406 28.4039 25.1727 28.9883 25.4149C29.5727 25.6571 30.055 26.0944 30.3532 26.6524C30.6513 27.2104 30.7467 27.8545 30.6231 28.4749C30.4996 29.0953 30.1647 29.6537 29.6756 30.055C29.1865 30.4562 28.5734 30.6754 27.9408 30.6753ZM27.9408 26.3003C27.6164 26.3004 27.2993 26.3966 27.0295 26.5769C26.7598 26.7572 26.5496 27.0134 26.4254 27.3131C26.3013 27.6129 26.2688 27.9427 26.3321 28.2609C26.3953 28.5791 26.5515 28.8714 26.7809 29.1008C27.0934 29.3991 27.5088 29.5655 27.9408 29.5655C28.3728 29.5655 28.7882 29.3991 29.1007 29.1008C29.3301 28.8714 29.4863 28.5791 29.5496 28.2609C29.6129 27.9427 29.5804 27.6129 29.4562 27.3131C29.3321 27.0134 29.1219 26.7572 28.8521 26.5769C28.5824 26.3966 28.2653 26.3004 27.9408 26.3003Z" fill="#FF0000"/>
<path d="M32.2656 20.2344C31.7248 20.2344 31.1962 20.074 30.7465 19.7736C30.2968 19.4731 29.9464 19.046 29.7394 18.5464C29.5324 18.0468 29.4783 17.497 29.5838 16.9666C29.6893 16.4361 29.9497 15.9489 30.3321 15.5665C30.7145 15.1841 31.2018 14.9237 31.7322 14.8182C32.2626 14.7127 32.8124 14.7668 33.312 14.9738C33.8117 15.1807 34.2387 15.5312 34.5392 15.9809C34.8396 16.4305 35 16.9592 35 17.5C34.9991 18.2249 34.7108 18.9199 34.1982 19.4325C33.6856 19.9451 32.9906 20.2335 32.2656 20.2344ZM32.2656 15.8594C31.9411 15.8594 31.6239 15.9556 31.3541 16.1359C31.0843 16.3161 30.8741 16.5724 30.7499 16.8722C30.6257 17.1719 30.5932 17.5018 30.6565 17.8201C30.7198 18.1383 30.8761 18.4307 31.1055 18.6601C31.335 18.8895 31.6273 19.0458 31.9456 19.1091C32.2638 19.1724 32.5937 19.1399 32.8935 19.0157C33.1933 18.8916 33.4495 18.6813 33.6298 18.4115C33.81 18.1417 33.9063 17.8245 33.9063 17.5C33.9063 17.0649 33.7334 16.6476 33.4257 16.3399C33.118 16.0322 32.7007 15.8594 32.2656 15.8594Z" fill="#FF0000"/>
<path d="M27.941 9.79346C27.3084 9.79359 26.6953 9.57437 26.2062 9.17314C25.7171 8.77191 25.3822 8.2135 25.2587 7.59306C25.1352 6.97262 25.2306 6.32854 25.5287 5.77057C25.8268 5.21259 26.3092 4.77524 26.8936 4.53304C27.478 4.29084 28.1283 4.25878 28.7337 4.44231C29.3391 4.62584 29.8622 5.01362 30.2137 5.53957C30.5653 6.06551 30.7236 6.69708 30.6617 7.32667C30.5998 7.95625 30.3215 8.54489 29.8742 8.99229C29.621 9.24712 29.3198 9.44915 28.9879 9.58668C28.6561 9.72421 28.3002 9.79449 27.941 9.79346ZM27.941 5.41846C27.6166 5.41853 27.2995 5.51479 27.0297 5.69506C26.76 5.87534 26.5498 6.13155 26.4256 6.43129C26.3015 6.73103 26.269 7.06085 26.3322 7.37906C26.3955 7.69726 26.5517 7.98956 26.7811 8.21901C27.0935 8.51752 27.5089 8.68411 27.941 8.68411C28.3731 8.68411 28.7886 8.51752 29.1009 8.21901C29.3303 7.98956 29.4865 7.69726 29.5498 7.37906C29.6131 7.06085 29.5806 6.73103 29.4564 6.43129C29.3323 6.13155 29.1221 5.87534 28.8523 5.69506C28.5826 5.51479 28.2655 5.41853 27.941 5.41846Z" fill="#FF0000"/>
<path d="M5.46861 26.6082C5.38144 26.6083 5.2955 26.5876 5.21797 26.5477C5.14044 26.5079 5.07356 26.45 5.02291 26.3791C3.62545 24.4158 2.71091 22.1506 2.35361 19.7674C2.34126 19.6955 2.34339 19.6219 2.3599 19.5509C2.3764 19.4799 2.40694 19.4129 2.44971 19.3538C2.49249 19.2948 2.54664 19.2449 2.60898 19.2071C2.67132 19.1693 2.74058 19.1443 2.81271 19.1337C2.88484 19.123 2.95837 19.1269 3.02897 19.1451C3.09958 19.1633 3.16583 19.1954 3.22384 19.2396C3.28185 19.2837 3.33045 19.339 3.36677 19.4023C3.40309 19.4655 3.4264 19.5353 3.43533 19.6077C3.76724 21.8194 4.61619 23.9216 5.91322 25.7436C5.97157 25.8254 6.00629 25.9216 6.01356 26.0217C6.02083 26.1219 6.00039 26.2221 5.95446 26.3114C5.90853 26.4007 5.8389 26.4757 5.7532 26.528C5.6675 26.5804 5.56904 26.6081 5.46861 26.6082Z" fill="#FF0000"/>
<path d="M15.3124 32.6518C15.2855 32.6517 15.2586 32.6497 15.232 32.6457C12.8487 32.2886 10.5834 31.3741 8.62026 29.9765C8.55927 29.9358 8.50706 29.8834 8.46673 29.8222C8.42641 29.761 8.39879 29.6924 8.38551 29.6203C8.37224 29.5482 8.37358 29.4742 8.38946 29.4027C8.40534 29.3312 8.43544 29.2636 8.47796 29.2039C8.52048 29.1442 8.57456 29.0937 8.63699 29.0553C8.69942 29.017 8.76892 28.9915 8.84136 28.9805C8.91381 28.9696 8.98773 28.9732 9.05872 28.9914C9.12972 29.0095 9.19634 29.0417 9.25464 29.0861C11.0771 30.3831 13.1796 31.232 15.3917 31.564C15.528 31.5844 15.6517 31.6556 15.7378 31.7632C15.824 31.8709 15.8662 32.0071 15.8562 32.1447C15.8462 32.2822 15.7846 32.4108 15.6837 32.5049C15.5829 32.5989 15.4503 32.6514 15.3124 32.6518Z" fill="#FF0000"/>
<path d="M19.6874 32.6518C19.5495 32.6514 19.4169 32.5989 19.316 32.5049C19.2152 32.4108 19.1536 32.2822 19.1435 32.1447C19.1335 32.0071 19.1758 31.8709 19.2619 31.7633C19.3481 31.6556 19.4717 31.5844 19.6081 31.564C21.895 31.2214 24.0638 30.3257 25.9261 28.9549C25.9838 28.9108 26.0498 28.8786 26.12 28.8602C26.1903 28.8418 26.2636 28.8376 26.3355 28.8479C26.4074 28.8581 26.4766 28.8826 26.5389 28.9199C26.6013 28.9571 26.6556 29.0064 26.6987 29.0649C26.7418 29.1234 26.7728 29.1899 26.7899 29.2605C26.807 29.3311 26.8099 29.4044 26.7983 29.4762C26.7868 29.5479 26.7611 29.6166 26.7227 29.6783C26.6843 29.7399 26.634 29.7933 26.5747 29.8354C24.5684 31.3133 22.2316 32.279 19.7672 32.6485C19.7407 32.6515 19.714 32.6526 19.6874 32.6518Z" fill="#FF0000"/>
<path d="M30.4437 25.1563C30.3487 25.1562 30.2554 25.1313 30.1729 25.0842C30.0905 25.037 30.0217 24.9692 29.9734 24.8874C29.9251 24.8056 29.899 24.7127 29.8975 24.6177C29.8961 24.5227 29.9194 24.429 29.9652 24.3458C30.7761 22.8743 31.3175 21.2697 31.5637 19.6077C31.5726 19.5353 31.5959 19.4655 31.6323 19.4023C31.6686 19.339 31.7172 19.2837 31.7752 19.2396C31.8332 19.1954 31.8995 19.1633 31.9701 19.1451C32.0407 19.1269 32.1142 19.123 32.1863 19.1337C32.2584 19.1443 32.3277 19.1693 32.3901 19.2071C32.4524 19.2449 32.5065 19.2948 32.5493 19.3538C32.5921 19.4129 32.6226 19.4799 32.6391 19.5509C32.6556 19.6219 32.6578 19.6955 32.6454 19.7674C32.3805 21.5583 31.7973 23.2875 30.9233 24.873C30.8761 24.9588 30.8066 25.0304 30.7223 25.0803C30.6379 25.1301 30.5417 25.1564 30.4437 25.1563Z" fill="#FF0000"/>
<path d="M32.1043 15.8595C31.9733 15.8593 31.8467 15.8122 31.7475 15.7265C31.6484 15.6409 31.5833 15.5226 31.564 15.393C31.2213 13.1059 30.3257 10.937 28.9549 9.0744C28.9122 9.01659 28.8814 8.95095 28.8642 8.88122C28.8469 8.8115 28.8436 8.73906 28.8543 8.66804C28.865 8.59702 28.8897 8.52882 28.9268 8.46731C28.9639 8.40581 29.0127 8.35222 29.0705 8.30959C29.1283 8.26697 29.194 8.23615 29.2637 8.2189C29.3334 8.20164 29.4059 8.19829 29.4769 8.20903C29.5479 8.21977 29.6161 8.24439 29.6776 8.28149C29.7391 8.31859 29.7927 8.36745 29.8353 8.42526C31.313 10.4315 32.2787 12.7681 32.6485 15.2322C32.6698 15.3757 32.6332 15.5217 32.5469 15.6382C32.4605 15.7547 32.3314 15.8321 32.188 15.8535C32.1603 15.8578 32.1323 15.8598 32.1043 15.8595Z" fill="#FF0000"/>
<path d="M26.0614 6.01558C25.9479 6.01537 25.8372 5.97982 25.7448 5.91386C23.9225 4.61686 21.8198 3.76809 19.6078 3.43652C19.4643 3.41534 19.335 3.33802 19.2485 3.22156C19.162 3.10511 19.1253 2.95906 19.1465 2.81554C19.1677 2.67202 19.245 2.54279 19.3614 2.45629C19.4779 2.36978 19.6239 2.33307 19.7675 2.35425C22.1506 2.71155 24.4158 3.62588 26.3792 5.023C26.4738 5.09024 26.5445 5.18582 26.5812 5.29592C26.6178 5.40601 26.6185 5.52491 26.5831 5.63543C26.5478 5.74595 26.4781 5.84234 26.3844 5.91068C26.2906 5.97902 26.1775 6.01576 26.0614 6.01558Z" fill="#FF0000"/>
<path d="M8.75017 6.15229C8.63482 6.15254 8.52235 6.1163 8.42884 6.04876C8.33533 5.98123 8.26557 5.88586 8.22953 5.77628C8.19349 5.66671 8.19302 5.54855 8.22818 5.43869C8.26335 5.32884 8.33235 5.23291 8.42532 5.16464C10.4321 3.68797 12.7688 2.72327 15.2328 2.35425C15.3039 2.34376 15.3763 2.34738 15.446 2.36488C15.5156 2.38239 15.5812 2.41345 15.6388 2.45628C15.6965 2.49912 15.7452 2.55289 15.7821 2.61453C15.8189 2.67617 15.8433 2.74447 15.8538 2.81554C15.8643 2.8866 15.8607 2.95903 15.8432 3.0287C15.8257 3.09836 15.7946 3.1639 15.7518 3.22156C15.7089 3.27922 15.6552 3.32789 15.5935 3.36477C15.5319 3.40165 15.4636 3.42603 15.3925 3.43651C13.1055 3.77895 10.9367 4.6746 9.07446 6.04565C8.98051 6.11489 8.86687 6.15226 8.75017 6.15229Z" fill="#FF0000"/>
<path d="M2.89841 15.8594C2.87132 15.8595 2.84425 15.8575 2.81748 15.8534C2.67404 15.832 2.54495 15.7546 2.4586 15.6381C2.37225 15.5216 2.33571 15.3756 2.35701 15.2321C2.62207 13.4413 3.20529 11.7124 4.07912 10.127C4.11302 10.0628 4.15936 10.006 4.21546 9.95988C4.27155 9.91376 4.33626 9.87928 4.40582 9.85845C4.47538 9.83761 4.54839 9.83084 4.6206 9.83852C4.69281 9.8462 4.76276 9.86819 4.82638 9.90319C4.89 9.9382 4.94601 9.98552 4.99114 10.0424C5.03628 10.0993 5.06963 10.1646 5.08926 10.2345C5.10889 10.3044 5.1144 10.3775 5.10547 10.4496C5.09654 10.5217 5.07334 10.5912 5.03724 10.6542C4.22624 12.1259 3.68488 13.7307 3.43873 15.3929C3.41947 15.5225 3.35434 15.6408 3.25518 15.7264C3.15602 15.8121 3.02942 15.8592 2.89841 15.8594Z" fill="#FF0000"/>
<path d="M17.4998 26.25C15.6714 26.2478 13.8898 25.6723 12.4057 24.6044C10.9216 23.5366 9.80978 22.0302 9.22676 20.2973C8.64374 18.5644 8.61887 16.6922 9.15566 14.9445C9.69245 13.1967 10.7639 11.6613 12.2191 10.5544C13.6743 9.44749 15.44 8.82485 17.2676 8.77412C19.0953 8.72339 20.8928 9.24713 22.4072 10.2716C23.9215 11.2961 25.0765 12.7697 25.7094 14.485C26.3423 16.2003 26.4213 18.0709 25.9353 19.8335C25.8966 19.9733 25.8039 20.092 25.6777 20.1635C25.5514 20.235 25.4019 20.2534 25.2621 20.2147C25.1223 20.1759 25.0036 20.0832 24.9321 19.957C24.8606 19.8307 24.8422 19.6813 24.8809 19.5414C25.3978 17.6768 25.19 15.6856 24.2991 13.9678C23.4083 12.2501 21.9004 10.9331 20.0785 10.2814C18.2565 9.62965 16.2555 9.6915 14.4773 10.4545C12.699 11.2175 11.2754 12.6251 10.4924 14.3946C9.70929 16.1641 9.62481 18.1643 10.2559 19.9935C10.8869 21.8227 12.1868 23.3453 13.8944 24.2556C15.6019 25.1658 17.5906 25.3961 19.461 24.9004C21.3315 24.4046 22.945 23.2194 23.9775 21.5829C24.0159 21.5222 24.0658 21.4696 24.1245 21.4282C24.1831 21.3868 24.2494 21.3573 24.3194 21.3415C24.3895 21.3257 24.462 21.3238 24.5327 21.336C24.6035 21.3482 24.6712 21.3742 24.7319 21.4126C24.7926 21.4509 24.8452 21.5009 24.8866 21.5595C24.9281 21.6182 24.9575 21.6845 24.9733 21.7545C24.9892 21.8246 24.991 21.897 24.9788 21.9678C24.9666 22.0386 24.9406 22.1063 24.9023 22.167C24.1164 23.42 23.0245 24.4522 21.7295 25.1666C20.4344 25.8809 18.9788 26.2537 17.4998 26.25Z" fill="#FF0000"/>
<path d="M16.4064 20.2344C16.2613 20.2343 16.1223 20.1767 16.0197 20.0741L13.8322 17.8866C13.7326 17.7835 13.6775 17.6454 13.6787 17.502C13.68 17.3586 13.7375 17.2214 13.8389 17.12C13.9403 17.0186 14.0774 16.9611 14.2208 16.9599C14.3642 16.9586 14.5024 17.0137 14.6055 17.1134L16.4064 18.9142L20.3947 14.9259C20.4979 14.8262 20.636 14.7711 20.7794 14.7724C20.9228 14.7736 21.06 14.8311 21.1613 14.9325C21.2627 15.0339 21.3203 15.1711 21.3215 15.3145C21.3227 15.4579 21.2676 15.596 21.168 15.6991L16.793 20.0741C16.6905 20.1767 16.5514 20.2343 16.4064 20.2344Z" fill="#FF0000"/>
</g>
<defs>
<clipPath id="clip0_85_803">
<rect width="35" height="35" fill="white"/>
</clipPath>
</defs>
</svg>
