<svg width="30" height="30" viewBox="0 0 30 30" fill="none" xmlns="http://www.w3.org/2000/svg">
<path d="M6.94012 4.25742L13.3256 10.6429L12.6421 11.3265L6.15655 4.84095C6.09471 4.77911 6.05057 4.70136 6.0295 4.61628L6.02949 4.61623L5.57965 2.82408L5.58671 2.82231L5.57189 2.81384L2.59038 1.1101L2.57952 1.10389L2.57067 1.11274L1.11137 2.57203L1.10252 2.58088L1.10873 2.59175L2.81083 5.57202L2.8045 5.57563L2.82107 5.57979L4.61322 6.02942L4.61323 6.02942C4.69813 6.05069 4.77568 6.09464 4.83751 6.15667L4.83753 6.15669L11.3231 12.642L10.6394 13.3255L4.254 6.94005L4.25593 6.93813L4.24639 6.93574L2.38126 6.46946C2.2536 6.43745 2.14443 6.35472 2.07922 6.2404L2.07921 6.24038L0.080097 2.74214C0.0800869 2.74213 0.0800769 2.74211 0.0800669 2.74209C-0.0264873 2.55179 0.00733043 2.31399 0.162816 2.16109L0.162914 2.161L2.16187 0.161837C2.31578 0.00852592 2.5532 -0.0232891 2.74189 0.0840722C2.7419 0.0840758 2.74191 0.0840794 2.74191 0.084083L6.24045 2.08304C6.35478 2.14846 6.43751 2.25783 6.46953 2.38571C6.46953 2.38571 6.46953 2.38571 6.46953 2.38571L6.93581 4.24981L6.93317 4.25047L6.94012 4.25742Z" fill="#FF0000" stroke="#FF0000" stroke-width="0.0327743"/>
<path d="M20.1372 9.16636L20.8206 9.84981L9.84892 20.8217L9.16526 20.1381L20.1372 9.16636Z" fill="#FF0000" stroke="#FF0000" stroke-width="0.0327743"/>
<path d="M2.57042 24.2473L4.0698 26.7461C4.16006 26.8964 4.32268 26.9885 4.49805 26.9885H7.49662C7.6722 26.9885 7.83461 26.8964 7.92508 26.7461M2.57042 24.2473L9.42426 23.7325C9.51945 23.8908 9.51945 24.0888 9.42426 24.2473L7.92508 26.7461M2.57042 24.2473C2.47523 24.0888 2.47523 23.8908 2.57042 23.7325M2.57042 24.2473V23.7325M7.92508 26.7461L7.91102 26.7376L7.91104 26.7376M7.92508 26.7461L7.91104 26.7376M7.91104 26.7376C7.82353 26.883 7.66643 26.9721 7.49662 26.9721H4.49805C4.32844 26.9721 4.17115 26.883 4.08385 26.7376L2.58447 24.2389L2.58446 24.2389C2.49239 24.0855 2.4924 23.8941 2.58446 23.7409L2.58447 23.7409L4.08385 21.2422L4.08386 21.2422C4.17114 21.0966 4.32843 21.0077 4.49805 21.0077H7.49662C7.66644 21.0077 7.82353 21.0966 7.91103 21.2422L9.4102 23.7409L9.41021 23.7409C9.50228 23.8941 9.50228 24.0855 9.41021 24.2389L9.4102 24.2389L7.91104 26.7376ZM2.57042 23.7325L4.0698 21.2337L2.57042 23.7325ZM7.21393 26.0053H7.22321L7.22798 25.9973L8.42741 23.9983L8.43247 23.9899L8.42741 23.9815L7.22798 21.9823L7.22321 21.9743H7.21393H4.78095H4.77167L4.7669 21.9823L3.56747 23.9815L3.56241 23.9899L3.56747 23.9983L4.7669 25.9973L4.77167 26.0053H4.78095H7.21393Z" fill="#FF0000" stroke="#FF0000" stroke-width="0.0327743"/>
<path d="M29.7864 4.55296L29.7864 4.55289C29.722 4.29379 29.4597 4.1361 29.2006 4.20052L29.7864 4.55296ZM29.7864 4.55296C29.9096 5.03867 29.9711 5.53772 29.9695 6.03881C29.9584 9.33054 27.2808 11.9902 23.989 11.9791C23.5968 11.9779 23.2056 11.9373 22.8214 11.8579L22.8128 11.8562L22.8065 11.8624L20.1862 14.4827L20.1747 14.4943L20.1862 14.5059L21.3322 15.6518C21.5209 15.8405 21.5209 16.1466 21.3322 16.3353L21.0822 16.5853L21.0816 16.5846L21.0803 16.5872M29.7864 4.55296L21.0803 16.5872M20.2094 14.4827L22.8181 11.874C23.2034 11.9536 23.5957 11.9943 23.989 11.9955C27.2897 12.0066 29.9748 9.33965 29.9859 6.03886C29.9875 5.53639 29.9259 5.03598 29.8023 4.54893L20.2094 14.4827ZM20.2094 14.4827L20.1978 14.4943L20.2094 14.5059L21.3438 15.6402C21.5389 15.8353 21.5389 16.1518 21.3438 16.3469L21.0938 16.5969C21.0936 16.5973 21.0932 16.5975 21.0928 16.5979M20.2094 14.4827L21.0812 16.5863C21.0815 16.586 21.0819 16.5856 21.0823 16.5853M21.0928 16.5979L21.0897 16.5948L21.0812 16.5864C21.0816 16.5859 21.082 16.5856 21.0823 16.5853M21.0928 16.5979C20.8744 16.8166 20.8751 17.1711 21.0938 17.3894L21.0928 16.5979ZM21.0823 16.5853C21.0828 16.5848 21.0832 16.5845 21.0827 16.5849L21.0827 16.585C21.0826 16.585 21.0825 16.5851 21.0823 16.5853ZM21.0803 16.5872C20.8564 16.8124 20.8574 17.1766 21.0822 17.401L21.0823 17.401C21.308 17.6253 21.6724 17.6253 21.8981 17.401L21.8982 17.401L22.1479 17.1512C22.3367 16.9625 22.6427 16.9625 22.8314 17.1512L28.7932 23.1128L28.8187 23.1385L28.8188 23.1386C30.3805 24.7144 30.369 27.2582 28.7932 28.8198C27.2172 30.3815 24.6737 30.3701 23.112 28.794L23.112 28.794L17.1502 22.8322C16.9615 22.6435 16.9615 22.3375 17.1502 22.1488L17.4 21.899L17.4 21.899L17.4 21.8989L17.4 21.8989L17.4 21.8989L17.4001 21.8989L17.4001 21.8989L17.4001 21.8989L17.4001 21.8989L17.4001 21.8989L17.4001 21.8989L17.4001 21.8988L17.4001 21.8988L17.4001 21.8988L17.4002 21.8988L17.4002 21.8988L17.4002 21.8988L17.4002 21.8988L17.4002 21.8988L17.4002 21.8987L17.4002 21.8987L17.4002 21.8987L17.4003 21.8987L17.4003 21.8987L17.4003 21.8987L17.4003 21.8987L17.4003 21.8987L17.4003 21.8986L17.4003 21.8986L17.4003 21.8986L17.4003 21.8986L17.4004 21.8986L17.4004 21.8986L17.4004 21.8986L17.4004 21.8986L17.4004 21.8986L17.4004 21.8985L17.4004 21.8985L17.4004 21.8985L17.4004 21.8985L17.4005 21.8985L17.4005 21.8985L17.4005 21.8985L17.4005 21.8985L17.4005 21.8985L17.4005 21.8984L17.4005 21.8984L17.4005 21.8984L17.4005 21.8984L17.4006 21.8984L17.4006 21.8984L17.4006 21.8984L17.4006 21.8984L17.4006 21.8984L17.4006 21.8983L17.4006 21.8983L17.4006 21.8983L17.4006 21.8983L17.4007 21.8983L17.4007 21.8983L17.4007 21.8983L17.4007 21.8983L17.4007 21.8983L17.4007 21.8982L17.4007 21.8982L17.4007 21.8982L17.4007 21.8982L17.4008 21.8982L17.4008 21.8982L17.4008 21.8982L17.4008 21.8982L17.4008 21.8982L17.4008 21.8981L17.4008 21.8981L17.4008 21.8981L17.4008 21.8981L17.4009 21.8981L17.4009 21.8981L17.4009 21.8981L17.4009 21.8981L17.4009 21.8981L17.4009 21.898L17.4009 21.898L17.4009 21.898L17.4009 21.898L17.401 21.898L17.401 21.898L17.401 21.898L17.401 21.898L17.401 21.898L17.401 21.898L17.401 21.8979L17.401 21.8979C17.6258 21.6726 17.6253 21.3077 17.4 21.083L17.4 21.083C17.1744 20.8589 16.8098 20.8589 16.5843 21.083L16.5843 21.083L16.3345 21.333C16.3345 21.333 16.3345 21.333 16.3345 21.333C16.1455 21.5217 15.8397 21.5217 15.6508 21.333L14.5048 20.1871L14.4933 20.1755L14.4817 20.1871L11.8614 22.8073L11.8551 22.8136L11.8569 22.8222C11.9363 23.2064 11.9769 23.5976 11.9781 23.99C11.9781 27.293 9.30037 29.9707 5.99734 29.9707C2.69409 29.9707 0.0163872 27.293 0.0163872 23.99C0.0163872 20.6867 2.69406 18.0091 5.99728 18.009C6.3895 18.0105 6.78068 18.0508 7.16488 18.1302L7.17353 18.132L7.17978 18.1257L18.1249 7.1808L18.1312 7.17454L18.1294 7.16589C18.0498 6.78169 18.0094 6.39052 18.0082 5.9981C18.0066 5.49845 18.0679 5.00064 18.1907 4.51636L18.1748 4.51234L18.1907 4.51636C18.9991 1.32426 22.2421 -0.608139 25.4344 0.200291L25.4345 0.200318C25.5202 0.221398 25.5985 0.265546 25.6608 0.327777L25.6723 0.31619L25.6608 0.327783C25.8497 0.516496 25.8499 0.822528 25.6612 1.01143L22.5501 4.12308L22.543 4.13024L22.5462 4.13985L23.3694 6.60758L23.372 6.61535L23.3797 6.61794L25.8481 7.44051L25.8577 7.44371L25.8649 7.43656L28.9759 4.3276C28.9759 4.3276 28.9759 4.32759 28.9759 4.32759C29.0379 4.26574 29.1155 4.2218 29.2006 4.20052L21.0803 16.5872ZM29.0031 5.99815C29.0031 5.90384 29 5.80913 28.994 5.71341L28.9918 5.67717L28.9661 5.70285L26.3298 8.33915C26.2003 8.46841 26.0088 8.51354 25.8354 8.45568L22.8367 7.45609L22.8366 7.45608C22.6923 7.40817 22.5789 7.29484 22.5306 7.15066C22.5306 7.15065 22.5306 7.15065 22.5306 7.15064L21.5312 4.15189C21.4734 3.9783 21.5187 3.78681 21.6481 3.65756L21.6482 3.65755L24.2845 1.02021L24.3101 0.994529L24.2739 0.992271C23.7541 0.959886 23.2322 1.00939 22.7277 1.13831C20.0578 1.82168 18.4472 4.53986 19.1303 7.2098C19.1717 7.37443 19.1234 7.54882 19.0033 7.66893L7.66858 19.0042L28.9867 5.99815M29.0031 5.99815H28.9867M29.0031 5.99815C29.0031 5.99813 29.0031 5.9981 29.0031 5.99807L28.9867 5.99815M29.0031 5.99815C29.0171 8.75327 26.7952 10.9981 24.04 11.0123C23.6141 11.0144 23.1896 10.962 22.777 10.8564M28.9867 5.99815C29.0007 8.74425 26.786 10.9817 24.0399 10.9959C23.6154 10.998 23.1923 10.9457 22.7811 10.8405M22.777 10.8564C22.7771 10.8564 22.7771 10.8564 22.7771 10.8564L22.7811 10.8405M22.777 10.8564L22.7811 10.8405M22.777 10.8564L22.7811 10.8405M22.3089 10.9745V10.9882H22.3062H22.2927L22.3062 10.9747L22.3076 10.9733L22.3089 10.9745ZM22.3089 10.9745L22.3178 10.9834C22.3182 10.983 22.3186 10.9826 22.319 10.9822C22.3211 10.9802 22.3231 10.9781 22.3252 10.9761V10.9721V10.9718V10.9555H22.3234C22.3185 10.9599 22.3136 10.9645 22.3089 10.9692C22.3084 10.9697 22.3079 10.9701 22.3074 10.9706L22.3086 10.9718H22.3089V10.9721V10.9745ZM24.8781 28.7823L24.8601 28.8002L24.8839 28.8092C25.2256 28.9376 25.5875 29.0035 25.9525 29.0041C26.3201 29.0045 26.6845 28.9384 27.0282 28.8092C28.6035 28.217 29.4004 26.46 28.8082 24.8847L28.7992 24.8609L28.7812 24.8789L24.8781 28.7823ZM20.3033 16.0091L20.313 15.9976L20.3023 15.987L19.5026 15.1893L19.491 15.1777L19.4794 15.1893L15.184 19.4784L15.1724 19.49L15.184 19.5016L15.9835 20.3011L15.9941 20.3117L16.0056 20.3021C16.5791 19.8201 17.416 19.8195 17.9901 20.3008C18.6434 20.8483 18.7292 21.8219 18.1816 22.4751L18.1719 22.4866L18.1825 22.4972L23.7954 28.1105C23.8569 28.1721 23.9217 28.2293 23.9875 28.2844L23.999 28.294L24.0096 28.2834L28.2826 24.0104L28.2933 23.9998L28.2836 23.9883C28.2283 23.9227 28.171 23.858 28.1097 23.7965L28.1097 23.7964L22.5012 18.1829L22.4905 18.1723L22.479 18.182C21.9056 18.6641 21.0688 18.6645 20.4947 18.1834C19.8415 17.636 19.7557 16.6623 20.3033 16.0091ZM22.3204 10.9836L22.3252 10.9884L7.66853 19.0043C7.54799 19.1238 7.37397 19.1721 7.2091 19.1317C6.39193 18.9239 5.53579 18.9239 4.71863 19.1318C2.017 19.8197 0.384643 22.5673 1.07232 25.2687C1.76021 27.9703 4.50782 29.6027 7.20924 28.9148C9.91086 28.2271 11.5432 25.4795 10.8553 22.7781L10.8395 22.7821L10.8554 22.7782C10.8144 22.6133 10.8627 22.4389 10.983 22.3188L10.9714 22.3072L10.983 22.3188L22.3204 10.9836Z" fill="#FF0000" stroke="#FF0000" stroke-width="0.0327743"/>
<path d="M20.8443 20.1612L25.8189 25.1356L25.1352 25.8193L20.1609 20.8449L20.8443 20.1612Z" fill="#FF0000" stroke="#FF0000" stroke-width="0.0327743"/>
</svg>
