<svg width="31" height="35" viewBox="0 0 31 35" fill="none" xmlns="http://www.w3.org/2000/svg">
<path d="M11.3185 29.0042C11.0232 29.0042 10.7286 28.9652 10.4353 28.87C9.41462 28.5385 8.74969 27.6435 8.16304 26.8538C7.79007 26.3518 7.43781 25.8776 7.04605 25.5924C6.64601 25.3013 6.0802 25.1095 5.48124 24.9063C4.55586 24.5924 3.50696 24.2367 2.88421 23.381C2.26768 22.5337 2.2523 21.4788 2.23739 20.4587C2.2281 19.8212 2.21935 19.2191 2.06349 18.7391C1.91809 18.2913 1.58108 17.8175 1.22424 17.3158C0.650437 16.5091 0 15.5948 0 14.5021C0 13.4095 0.650437 12.4951 1.22424 11.6884C1.58108 11.1867 1.91809 10.7129 2.06349 10.2651C2.21935 9.78513 2.2281 9.18302 2.23739 8.54557C2.25223 7.52538 2.26761 6.47046 2.88421 5.62322C3.50696 4.7675 4.55586 4.41176 5.48124 4.09792C6.08027 3.89476 6.64601 3.70287 7.04612 3.41166C7.43788 3.12654 7.79014 2.65233 8.1631 2.1503C8.74976 1.36068 9.41462 0.465659 10.4353 0.134254C11.4147 -0.183616 12.4132 0.124684 13.3789 0.423003C13.9978 0.614203 14.5824 0.79474 15.1034 0.79474C15.6245 0.79474 16.209 0.614203 16.8279 0.423003C17.7936 0.124684 18.7922 -0.183753 19.7715 0.134254C20.7921 0.465659 21.457 1.36068 22.0438 2.15037C22.4167 2.6524 22.769 3.12654 23.1608 3.41166C23.5609 3.70287 24.1267 3.89469 24.7256 4.09792C25.6509 4.41176 26.6998 4.7675 27.3225 5.62322C27.9392 6.47046 27.9545 7.52538 27.9694 8.54557C27.9787 9.18302 27.9875 9.78513 28.1433 10.2651C28.2887 10.7129 28.6257 11.1868 28.9826 11.6884C29.5564 12.4952 30.2068 13.4095 30.2068 14.5022C30.2068 15.5948 29.5564 16.5091 28.9826 17.3159C28.6258 17.8176 28.2887 18.2914 28.1433 18.7391C27.9875 19.2191 27.9788 19.8212 27.9695 20.4586C27.9546 21.4788 27.9392 22.5338 27.3225 23.3811C26.6998 24.2367 25.6509 24.5925 24.7255 24.9064C24.1265 25.1095 23.5608 25.3014 23.1608 25.5925C22.7691 25.8776 22.4167 26.3518 22.0438 26.8539C21.4571 27.6435 20.7922 28.5386 19.7714 28.87C18.7923 29.1882 17.7935 28.8795 16.8279 28.5812C16.209 28.3901 15.6245 28.2095 15.1034 28.2095C14.5823 28.2095 13.9978 28.3901 13.3789 28.5812C12.7024 28.7902 12.0095 29.0042 11.3185 29.0042ZM15.1034 26.8133C15.8352 26.8133 16.5493 27.0339 17.24 27.2472C18.0327 27.4921 18.7815 27.7234 19.3404 27.5421C19.9373 27.3482 20.4161 26.7037 20.9231 26.0212C21.3421 25.4573 21.7753 24.8741 22.3392 24.4637C22.9111 24.0474 23.6056 23.8119 24.2771 23.5842C25.0766 23.313 25.8317 23.0568 26.1937 22.5595C26.5497 22.0704 26.5612 21.2776 26.5735 20.4382C26.5839 19.7254 26.5946 18.9882 26.8154 18.3079C27.0269 17.6565 27.4428 17.072 27.8449 16.5067C28.3416 15.8084 28.8107 15.1489 28.8107 14.5022C28.8107 13.8554 28.3416 13.196 27.8449 12.4977C27.4428 11.9324 27.0269 11.3477 26.8155 10.6964C26.5946 10.0161 26.5838 9.27893 26.5734 8.56601C26.5613 7.7267 26.5497 6.93394 26.1938 6.44489C25.8317 5.94745 25.0766 5.69137 24.2771 5.42019C23.6056 5.19242 22.9112 4.95685 22.3392 4.54068C21.7753 4.13025 21.3421 3.54708 20.9231 2.98312C20.4161 2.30069 19.9373 1.65613 19.3404 1.46233C18.7815 1.28098 18.0328 1.51224 17.2399 1.75717C16.5493 1.97045 15.8352 2.19104 15.1034 2.19104C14.3716 2.19104 13.6575 1.97045 12.9668 1.75717C12.1739 1.51217 11.4249 1.28091 10.8664 1.46233C10.2696 1.65613 9.79073 2.30069 9.28378 2.98312C8.86481 3.54708 8.43155 4.13025 7.86759 4.54068C7.29569 4.95692 6.60123 5.19242 5.92968 5.42019C5.13022 5.69137 4.37505 5.94751 4.01302 6.44489C3.65714 6.93394 3.64559 7.7267 3.63336 8.56608C3.62296 9.27893 3.61223 10.0161 3.39136 10.6964C3.17986 11.3477 2.76403 11.9324 2.36188 12.4977C1.86525 13.196 1.3961 13.8555 1.3961 14.5022C1.3961 15.1489 1.86518 15.8084 2.36188 16.5066C2.76403 17.072 3.17986 17.6566 3.39136 18.308C3.61223 18.9882 3.62303 19.7254 3.63336 20.4383C3.64559 21.2777 3.65714 22.0705 4.01302 22.5595C4.37505 23.0569 5.13022 23.313 5.92968 23.5842C6.60123 23.8119 7.29569 24.0474 7.86759 24.4636C8.43155 24.874 8.86474 25.4573 9.28371 26.0212C9.79067 26.7037 10.2695 27.3482 10.8664 27.5421C11.4251 27.7236 12.1739 27.4921 12.9668 27.2472C13.6575 27.0339 14.3716 26.8133 15.1034 26.8133Z" fill="#FF1500"/>
<path d="M10.5349 34.9999H5.20388C4.97112 34.9999 4.75367 34.8839 4.62406 34.6906C4.49445 34.4972 4.46978 34.252 4.55823 34.0367L7.89142 25.9218C8.03792 25.5652 8.44575 25.3948 8.80231 25.5413C9.15894 25.6878 9.32929 26.0956 9.18279 26.4523L6.24527 33.6038H10.058L12.3264 27.7921C12.4666 27.433 12.8712 27.2552 13.2305 27.3956C13.5896 27.5357 13.7672 27.9406 13.627 28.2997L11.1852 34.5556C11.0806 34.8236 10.8225 34.9999 10.5349 34.9999Z" fill="#FF1500"/>
<path d="M25.0032 35H19.6722C19.3784 35 19.1161 34.816 19.0159 34.5398L16.7441 28.2736C16.7392 28.2613 16.7347 28.2489 16.7307 28.2364L16.7252 28.2196C16.6046 27.8534 16.8037 27.4588 17.1698 27.3383C17.5357 27.2178 17.9301 27.4165 18.051 27.7823C18.0516 27.7838 18.0521 27.7855 18.0528 27.7871L20.1616 33.6039H23.9873L21.1621 26.2496C21.0239 25.8898 21.2036 25.4859 21.5635 25.3477C21.9233 25.2094 22.3272 25.389 22.4654 25.749L25.6548 34.0517C25.7373 34.2663 25.7088 34.5078 25.5785 34.6973C25.4483 34.8869 25.2332 35 25.0032 35Z" fill="#FF1500"/>
<path d="M15.1037 25.2269C9.32997 25.2269 4.63281 20.5297 4.63281 14.7561C4.63281 8.98245 9.33004 4.28516 15.1037 4.28516C20.8773 4.28516 25.5745 8.98232 25.5745 14.756C25.5745 20.5297 20.8773 25.2269 15.1037 25.2269ZM15.1037 5.68125C10.0998 5.68125 6.02891 9.75218 6.02891 14.756C6.02891 19.7598 10.0998 23.8307 15.1037 23.8307C20.1075 23.8307 24.1784 19.7598 24.1784 14.756C24.1784 9.75218 20.1075 5.68125 15.1037 5.68125Z" fill="#FF1500"/>
<path d="M18.2999 20.379C18.1766 20.379 18.0532 20.3464 17.9431 20.2809L14.8051 18.4147L11.4888 19.9417C11.2474 20.0528 10.964 20.0173 10.7574 19.8501C10.551 19.6829 10.4573 19.413 10.5159 19.1538L11.3211 15.5927L8.84393 12.9106C8.66367 12.7154 8.60987 12.4348 8.70509 12.1867C8.80038 11.9387 9.02816 11.7663 9.29277 11.7419L12.9285 11.4072L14.7138 8.22253C14.8437 7.99072 15.0944 7.85305 15.3593 7.86679C15.6247 7.88073 15.8591 8.04411 15.964 8.28822L17.4058 11.6425L20.9862 12.3563C21.2468 12.4083 21.4553 12.6037 21.524 12.8604C21.5928 13.117 21.5098 13.3904 21.3101 13.5657L18.5656 15.9734L18.9932 19.5993C19.0243 19.8631 18.9029 20.1218 18.6801 20.2665C18.5646 20.3413 18.4323 20.379 18.2999 20.379ZM14.8465 16.9291C14.9703 16.9291 15.0937 16.962 15.2033 17.0272L17.441 18.3579L17.1361 15.7723C17.1092 15.5441 17.1963 15.3174 17.3691 15.1658L19.3262 13.4489L16.7729 12.9398C16.5476 12.8949 16.3588 12.742 16.2681 12.5309L15.2399 10.1389L13.9668 12.4099C13.8544 12.6104 13.6507 12.7426 13.4219 12.7637L10.8292 13.0023L12.5957 14.915C12.7515 15.0837 12.8144 15.3184 12.7638 15.5425L12.1896 18.082L14.5545 16.993C14.6474 16.9503 14.7471 16.9291 14.8465 16.9291Z" fill="#FF1500"/>
</svg>
