<svg width="23" height="27" viewBox="0 0 23 27" fill="none" xmlns="http://www.w3.org/2000/svg">
<path d="M11.161 25.1499C7.27154 25.1499 3.84014 22.8669 1.98194 19.0429C0.173622 15.3214 0.241635 11.021 2.1442 7.44848C2.33866 7.60877 2.57316 7.69547 2.81985 7.69547C3.12509 7.69547 3.41171 7.5629 3.62678 7.32216L4.19201 6.68979L6.10682 6.0446C6.16055 6.0265 6.20952 5.99372 6.24926 5.94931L7.52756 4.51901C7.66033 4.37041 7.66033 4.12951 7.52756 3.98095L6.92623 3.30815L7.86286 2.26018C7.99563 2.11163 7.99563 1.87067 7.86286 1.72212C7.73004 1.57357 7.51473 1.57357 7.38191 1.72212L6.44528 2.77008L5.48664 1.69744L6.42327 0.649475C6.55604 0.500923 6.55604 0.259967 6.42327 0.111414C6.29045 -0.0371381 6.07514 -0.0371381 5.94232 0.111414L5.00569 1.15933L4.40436 0.486519C4.27159 0.337966 4.05623 0.337912 3.92346 0.486519L2.64511 1.91682C2.60542 1.96123 2.57613 2.01596 2.5599 2.07613L1.98325 4.21854L1.41806 4.85091C1.20295 5.09159 1.08446 5.41229 1.08446 5.7538C1.08446 6.09537 1.20295 6.41601 1.41806 6.65669L1.64216 6.90749C0.602637 8.80225 0.0361389 10.9513 0.00169529 13.143C-0.0323111 15.309 0.445868 17.4748 1.3844 19.4064C3.36357 23.4793 7.01838 25.9108 11.161 25.9108C11.3488 25.9108 11.5011 25.7405 11.5011 25.5304C11.5011 25.3202 11.3489 25.1499 11.161 25.1499ZM4.16389 1.29364L6.80618 4.25001L6.00878 5.14219L3.36648 2.18582L4.16389 1.29364ZM1.89901 5.38897L2.52468 4.68893C2.56437 4.64452 2.59362 4.58978 2.60984 4.52961L3.04716 2.90483L5.36616 5.49947L3.91399 5.98878C3.86026 6.00688 3.81134 6.03965 3.7716 6.08406L3.14583 6.7841C2.96603 6.98527 2.67348 6.98521 2.49378 6.7841L1.89891 6.11852C1.81225 6.02155 1.76449 5.89202 1.76449 5.75374C1.76459 5.61552 1.81229 5.48594 1.89901 5.38897ZM20.9376 7.44489C18.9585 3.37196 15.3037 0.940329 11.161 0.940329C10.9732 0.940329 10.8209 1.11068 10.8209 1.32081C10.8209 1.53095 10.9732 1.7013 11.161 1.7013C15.0505 1.7013 18.4818 3.98427 20.3401 7.80831C22.1484 11.5297 22.0804 15.8302 20.1777 19.4027C19.9833 19.2424 19.7488 19.1557 19.5021 19.1557C19.1969 19.1557 18.9102 19.2883 18.6951 19.529L18.1299 20.1614L16.2152 20.8066C16.1614 20.8247 16.1125 20.8575 16.0728 20.9019L14.7944 22.3322C14.7306 22.4035 14.6948 22.5003 14.6948 22.6013C14.6948 22.7022 14.7306 22.799 14.7944 22.8703L15.3958 23.5431L14.4591 24.5912C14.3264 24.7398 14.3264 24.9807 14.4592 25.1292C14.5255 25.2035 14.6126 25.2406 14.6996 25.2406C14.7866 25.2406 14.8737 25.2035 14.9401 25.1292L15.8767 24.0812L16.8354 25.1539L15.8988 26.2019C15.7659 26.3504 15.7659 26.5914 15.8987 26.7399C15.9651 26.8142 16.0521 26.8513 16.1392 26.8513C16.2262 26.8513 16.3133 26.8142 16.3796 26.7399L17.3163 25.6919L17.9177 26.3648C17.9814 26.4361 18.0679 26.4762 18.1581 26.4762C18.2483 26.4762 18.3348 26.4361 18.3986 26.3648L19.6769 24.9345C19.7166 24.89 19.7458 24.8353 19.762 24.7751L20.3387 22.6327L20.9039 22.0004C21.119 21.7597 21.2375 21.439 21.2375 21.0975C21.2375 20.756 21.119 20.4353 20.9039 20.1946L20.6797 19.9438C21.7193 18.049 22.2858 15.8999 22.3202 13.7083C22.3543 11.5423 21.8762 9.37646 20.9376 7.44489ZM18.1582 25.5576L15.5158 22.6012L16.3133 21.709L18.9555 24.6654L18.1582 25.5576ZM20.4231 21.4623L19.7974 22.1623C19.7577 22.2067 19.7284 22.2614 19.7122 22.3216L19.2748 23.9464L16.9559 21.3518L18.408 20.8624C18.4617 20.8443 18.5107 20.8116 18.5504 20.7672L19.1762 20.0671C19.2628 19.9701 19.3786 19.9167 19.5022 19.9167C19.6258 19.9167 19.7415 19.9701 19.8283 20.0671L20.4231 20.7326C20.6028 20.9338 20.6028 21.2611 20.4231 21.4623ZM5.64477 15.0787C5.7086 15.1784 5.81159 15.2376 5.92119 15.2376H10.4014L8.8131 21.9109C8.77102 22.0876 8.84725 22.2727 8.99454 22.3518C9.04172 22.3772 9.0919 22.3893 9.1415 22.3893C9.24687 22.3893 9.34967 22.3344 9.41554 22.2343L16.6747 11.199C16.7507 11.0835 16.7621 10.9299 16.7043 10.8018C16.6464 10.6737 16.5291 10.593 16.4008 10.593H11.1969L12.6713 6.10819C12.7097 5.99149 12.6946 5.86115 12.6311 5.75913C12.5675 5.65716 12.4633 5.59633 12.3522 5.59633H8.61732C8.47167 5.59633 8.3422 5.70015 8.29532 5.85446L5.5992 14.7347C5.56398 14.8509 5.58088 14.9789 5.64477 15.0787ZM8.86095 6.35736H11.8647L10.3904 10.8422C10.352 10.9589 10.367 11.0892 10.4306 11.1913C10.4942 11.2932 10.5983 11.3541 10.7095 11.3541H15.7282L9.93249 20.1647L11.1725 14.955C11.1997 14.8408 11.1779 14.719 11.1135 14.6253C11.0492 14.5315 10.9495 14.4766 10.8439 14.4766H6.39577L8.86095 6.35736Z" fill="#FF1500"/>
</svg>
