<svg width="24" height="24" viewBox="0 0 24 24" fill="none" xmlns="http://www.w3.org/2000/svg">
<path d="M12 0.75C7.86487 0.75 4.5 3.70838 4.5 7.34475C4.5 9.2685 5.763 11.2493 6.98288 13.1632C8.034 14.8106 9.03788 16.383 9.35138 18H14.6483C14.9625 16.3826 15.9653 14.8103 17.016 13.1632C18.2366 11.2493 19.5 9.2685 19.5 7.34475C19.5 3.70838 16.1351 0.75 12 0.75ZM12 11.1278C12.7245 11.9096 13.407 12.1421 13.719 12.2111C13.6721 12.4192 13.6298 12.6225 13.5806 12.8228C13.4884 13.2323 13.3984 13.6313 13.311 14.0145C13.0675 15.0917 12.8307 16.1703 12.6004 17.2504H11.3993C11.1684 16.1704 10.9315 15.0918 10.6886 14.0145L10.4183 12.8228C10.3691 12.6225 10.3268 12.4192 10.2806 12.2111C10.593 12.1421 11.2755 11.9096 12 11.1278ZM11.7979 10.3091C11.7263 10.1543 11.7004 9.996 11.7739 9.87937C11.8354 9.78675 11.9167 9.73388 12.0004 9.73388C12.084 9.73388 12.1646 9.78675 12.2269 9.87937C12.3 9.996 12.2745 10.1539 12.2029 10.3091C12.15 10.4186 12.0776 10.5229 12 10.6237C11.9217 10.5263 11.8539 10.4209 11.7979 10.3091ZM16.3841 12.7594C15.4155 14.2778 14.4945 15.7211 14.058 17.25H12.8407C13.1106 16.1933 13.3748 15.1352 13.6331 14.0756C13.7254 13.6927 13.8229 13.2964 13.9222 12.8876C13.9777 12.6701 14.0269 12.4459 14.0812 12.2228C14.3647 12.2036 14.6359 12.1151 14.8474 11.9213C15.0641 11.7079 15.177 11.4289 15.1264 11.1311C15.1035 10.9886 14.9966 10.8041 14.7904 10.7411C14.6895 10.7072 14.5807 10.7047 14.4784 10.734C14.3934 10.7659 14.3167 10.8167 14.2541 10.8825C14.0543 11.1045 13.9815 11.3261 13.8998 11.5459C13.8615 11.6565 13.83 11.7671 13.8 11.8763C13.8 11.8763 13.4812 11.9006 12.7995 11.442C12.4208 11.1874 12.3116 11.0033 12.2017 10.8814C12.3202 10.7498 12.4339 10.6054 12.522 10.4303C12.5689 10.3324 12.6083 10.2262 12.6217 10.107C12.6353 9.98775 12.6131 9.85275 12.5449 9.7365C12.472 9.60763 12.3577 9.50719 12.2205 9.4515C12.1523 9.42712 12.0761 9.4155 12 9.4155C11.9239 9.4155 11.847 9.42675 11.7795 9.4515C11.6422 9.5073 11.5277 9.60769 11.4544 9.7365C11.3861 9.85313 11.3644 9.98775 11.3775 10.107C11.3926 10.2196 11.4266 10.3289 11.478 10.4303C11.5658 10.6054 11.6794 10.7501 11.7983 10.8814C11.6884 11.0033 11.5785 11.1874 11.1997 11.442C10.518 11.901 10.1993 11.8763 10.1993 11.8763C10.1699 11.7651 10.1369 11.6549 10.1003 11.5459C10.0174 11.3261 9.94575 11.1045 9.74588 10.8825C9.68333 10.8167 9.60665 10.7659 9.52163 10.734C9.41931 10.7047 9.3105 10.7072 9.20963 10.7411C9.00225 10.8041 8.89612 10.9886 8.87362 11.1311C8.82225 11.4289 8.93587 11.7079 9.15263 11.9213C9.36487 12.1151 9.63525 12.2036 9.91875 12.2228C9.97238 12.4463 10.0211 12.6701 10.0778 12.8876L10.3669 14.0756C10.6255 15.1351 10.8896 16.1933 11.1592 17.25H9.942C9.50625 15.7226 8.58487 14.2793 7.61362 12.7579C6.4515 10.9342 5.25 9.04875 5.25 7.34475C5.25 4.122 8.27775 1.5 12 1.5C15.7222 1.5 18.75 4.122 18.75 7.34475C18.75 9.0495 17.5474 10.9354 16.3841 12.7594ZM14.1746 11.874C14.1967 11.7971 14.2192 11.7191 14.2455 11.6441C14.3164 11.4465 14.4067 11.2316 14.5297 11.103C14.559 11.07 14.589 11.0569 14.6044 11.0483C14.6044 11.0498 14.6411 11.0438 14.6644 11.0554C14.706 11.0659 14.7457 11.109 14.7611 11.1919C14.7911 11.3524 14.715 11.559 14.5774 11.6884C14.4806 11.7803 14.3314 11.8447 14.1746 11.874ZM9.82463 11.874C9.66787 11.8447 9.51863 11.7802 9.42263 11.688C9.28425 11.5586 9.20887 11.352 9.23887 11.1915C9.25425 11.1082 9.29363 11.0655 9.33563 11.055C9.35925 11.0437 9.39563 11.0494 9.39563 11.0479C9.41025 11.0565 9.441 11.07 9.46875 11.1026C9.5925 11.2316 9.6825 11.4461 9.75375 11.6437C9.78 11.7191 9.80287 11.7971 9.82463 11.874ZM9.945 18.5839H9.57V19.9339H9.858V21.1343H10.146V22.3346H10.6282C10.8551 22.8705 11.3801 23.25 12 23.25C12.6195 23.25 13.1441 22.8705 13.3717 22.3339H13.8694V21.126L13.9114 21.1106L14.157 21.0206V19.9245L14.1814 19.9166L14.4443 19.8341V18.5835L9.945 18.5839Z" fill="#FF1500"/>
</svg>
