<svg width="23" height="27" viewBox="0 0 23 27" fill="none" xmlns="http://www.w3.org/2000/svg">
<path fill-rule="evenodd" clip-rule="evenodd" d="M14.9135 10.8612C15.7084 11.094 16.4535 11.5501 17.0713 12.2322C17.7479 12.9792 18.1842 13.8996 18.3821 14.8799C18.5837 15.8779 18.5373 16.9382 18.2453 17.9397L22.786 22.9534C22.9087 23.0945 22.9059 23.3201 22.7798 23.4573L19.7519 26.7519C19.6281 26.8866 19.4302 26.8866 19.3065 26.7505L14.8322 21.8101C13.9406 22.1501 12.9934 22.216 12.0988 22.0037C11.2208 21.7954 10.3929 21.3196 9.71643 20.5727C9.09805 19.89 8.68049 19.0625 8.46213 18.1771C8.23612 17.2607 8.22327 16.2837 8.42178 15.3423C8.44648 15.2254 8.49673 15.1224 8.56753 15.0392C8.63869 14.9557 8.72834 14.8943 8.83134 14.8612C8.934 14.8281 9.03835 14.8267 9.13736 14.8548C9.23581 14.8829 9.32691 14.9403 9.40367 15.025L11.7088 17.5703L13.8536 16.9103L14.4152 14.5016L12.111 11.9573C12.0341 11.8723 11.9814 11.7707 11.9549 11.6605C11.9287 11.5514 11.9289 11.4346 11.9573 11.318C11.9858 11.2018 12.0387 11.1012 12.1109 11.0221L12.1124 11.0204C12.1855 10.9404 12.2764 10.8831 12.3798 10.8541C13.219 10.6193 14.0922 10.6206 14.9136 10.8612L14.9135 10.8612ZM16.6246 12.7403C16.0883 12.1482 15.4423 11.7525 14.7538 11.5508C14.0655 11.3493 13.3335 11.3407 12.624 11.5226L14.8831 14.017C14.9583 14.1001 15.0105 14.2005 15.0376 14.3107C15.0644 14.4195 15.0654 14.5347 15.0389 14.6486L14.4624 17.1212C14.4355 17.2364 14.3843 17.3369 14.3136 17.4171C14.2426 17.4976 14.1532 17.5564 14.05 17.5881L11.8479 18.2658C11.746 18.2971 11.6431 18.2977 11.5459 18.2692C11.4474 18.2405 11.3574 18.1837 11.2824 18.1009L9.02265 15.6058C8.8696 16.4021 8.8869 17.2207 9.0759 17.9872C9.26541 18.7556 9.62733 19.4731 10.163 20.0646C10.7494 20.712 11.4681 21.1247 12.2311 21.3057C13.0237 21.4938 13.8637 21.4326 14.6531 21.1256C14.7599 21.0841 14.87 21.0777 14.9746 21.1041C15.0797 21.1307 15.1767 21.1893 15.2567 21.2776L19.5315 25.9975L22.1026 23.2001L17.7761 18.4229C17.6959 18.3344 17.6421 18.2262 17.6169 18.1084C17.592 17.9922 17.5961 17.8692 17.6316 17.75C17.8957 16.862 17.9395 15.9209 17.7608 15.0363C17.5891 14.1859 17.2109 13.3877 16.6247 12.7404L16.6246 12.7403ZM18.5325 0.714758H16.2863V7.91655H18.5325V0.714758ZM7.07558 12.7455V10.2324H0.638875V12.7455H7.07558ZM1.62426 9.51765H6.23394V8.32003C6.23394 7.9372 6.3737 7.58939 6.59881 7.33752C6.82397 7.0856 7.13478 6.92929 7.47694 6.92929H15.6475V1.77168H7.47694C5.86268 1.77168 4.39952 2.50568 3.33993 3.69128C2.28029 4.87687 1.62426 6.51395 1.62426 8.32009V9.51771V9.51765ZM7.7144 9.87503C7.7144 9.67766 7.5714 9.51765 7.39499 9.51765H6.87272V8.32003C6.87272 8.13452 6.94077 7.96556 7.05043 7.84287C7.16008 7.72019 7.31109 7.64404 7.47689 7.64404H15.6474V8.27393C15.6474 8.47131 15.7904 8.63131 15.9668 8.63131H18.8518C19.0282 8.63131 19.1712 8.47131 19.1712 8.27393V0.357379C19.1712 0.160004 19.0282 0 18.8518 0H15.9668C15.7904 0 15.6474 0.160004 15.6474 0.357379V1.05692H7.47689C5.68632 1.05692 4.06341 1.87104 2.88821 3.18592C1.71302 4.50081 0.985388 6.31663 0.985388 8.32009V9.51771H0.319412C0.143006 9.51771 0 9.67772 0 9.87509V13.103C0 13.3003 0.143006 13.4604 0.319412 13.4604H7.39494C7.57135 13.4604 7.71435 13.3003 7.71435 13.103V9.87509L7.7144 9.87503ZM6.05934 22.3006C5.49571 22.9312 4.71713 23.3212 3.8572 23.3212C2.99727 23.3212 2.21869 22.9312 1.65511 22.3006C1.09154 21.67 0.742879 20.7988 0.742879 19.8367C0.742879 18.2583 1.96923 16.7045 2.96082 15.4481C3.19522 15.1511 3.41573 14.8717 3.60549 14.6083C3.62039 14.5868 3.63779 14.5669 3.65754 14.5491C3.79465 14.4257 3.99521 14.4501 4.10546 14.6035C4.29597 14.8683 4.51773 15.1493 4.75359 15.4481C5.74522 16.7045 6.97152 18.2583 6.97152 19.8367C6.97152 20.7988 6.62291 21.6699 6.05929 22.3006L6.05934 22.3006ZM3.8572 22.6065C4.54083 22.6065 5.1597 22.2964 5.60767 21.7953C6.05564 21.2941 6.33275 20.6016 6.33275 19.8367C6.33275 18.5246 5.1961 17.0845 4.27702 15.92C4.12986 15.7335 3.98791 15.5537 3.8572 15.3832C3.7265 15.5537 3.58459 15.7335 3.43738 15.92C2.5183 17.0845 1.38165 18.5246 1.38165 19.8367C1.38165 20.6016 1.65876 21.2941 2.10673 21.7953C2.5547 22.2965 3.17357 22.6065 3.8572 22.6065V22.6065ZM4.77229 21.4724C5.02095 21.3027 5.22735 21.0637 5.36996 20.7796C5.50807 20.5045 5.58687 20.1878 5.58687 19.8513C5.58687 19.6539 5.44386 19.4939 5.26746 19.4939C5.09105 19.4939 4.94804 19.6539 4.94804 19.8513C4.94804 20.0624 4.89919 20.26 4.81354 20.4306C4.72418 20.6086 4.59533 20.758 4.44042 20.8637C4.29022 20.9663 4.24272 21.1857 4.33437 21.3537C4.42602 21.5218 4.62208 21.575 4.77229 21.4724Z" fill="#FF1500"/>
</svg>
