<svg width="24" height="24" viewBox="0 0 24 24" fill="none" xmlns="http://www.w3.org/2000/svg">
<g clip-path="url(#clip0_143_273)">
<path d="M21.264 6.3601C20.0604 4.6401 18.8156 2.8585 18.1712 0.440097C18.1389 0.314319 18.0657 0.202859 17.9631 0.123271C17.8604 0.0436833 17.7343 0.000488281 17.6044 0.000488281C17.4746 0.000488281 17.3484 0.0436833 17.2458 0.123271C17.1431 0.202859 17.0699 0.314319 17.0376 0.440097C16.3912 2.8613 15.1448 4.6401 13.94 6.3633C13.7208 6.6761 13.5116 6.9785 13.3068 7.2797C13.002 6.6208 12.7535 5.93729 12.564 5.2365C12.5316 5.11087 12.4582 4.99968 12.3553 4.92061C12.2525 4.84153 12.1261 4.79911 11.9964 4.8001C11.8667 4.79917 11.7405 4.84168 11.6378 4.92084C11.535 5 11.4618 5.11126 11.4296 5.2369C11.2407 5.93532 10.9932 6.61654 10.6896 7.2733C10.4864 6.9741 10.2784 6.6733 10.0608 6.3633C8.85601 4.6433 7.60961 2.8613 6.96441 0.443297C6.93274 0.31707 6.8599 0.205 6.7574 0.12481C6.6549 0.0446187 6.52859 0.000882046 6.39845 0.000514938C6.26831 0.000147831 6.14177 0.0431712 6.03882 0.122783C5.93587 0.202394 5.86239 0.31405 5.83001 0.440097C5.18441 2.8585 3.93961 4.6401 2.73601 6.3601C1.50841 8.1145 0.34921 9.7721 0.0604103 11.8601C-0.0579054 12.7404 0.0045506 13.6355 0.24396 14.4908C0.483369 15.3461 0.894702 16.1436 1.45281 16.8345C1.9836 17.5002 2.64436 18.0508 3.39484 18.4528C4.14531 18.8548 4.96978 19.0998 5.81801 19.1729C6.051 20.0694 6.47145 20.9064 7.05161 21.6285C7.5896 22.3054 8.26173 22.8638 9.0258 23.2687C9.78986 23.6735 10.6294 23.916 11.4916 23.9809C11.6636 23.9937 11.8344 24.0001 12.004 24.0001C13.4288 24.0045 14.8139 23.531 15.9378 22.6554C17.0618 21.7798 17.8597 20.5526 18.204 19.1701C19.0482 19.0946 19.8683 18.8486 20.6148 18.4471C21.3612 18.0456 22.0185 17.4969 22.5468 16.8341C23.1049 16.1432 23.5162 15.3458 23.7557 14.4906C23.9951 13.6354 24.0577 12.7403 23.9396 11.8601C23.6508 9.7721 22.4916 8.1145 21.264 6.3601ZM2.07481 16.3317C1.58562 15.7261 1.22497 15.0271 1.01487 14.2775C0.804771 13.5279 0.749629 12.7433 0.85281 11.9717C1.11521 10.0749 2.17001 8.5665 3.39161 6.8201C4.46641 5.2829 5.67161 3.5601 6.39601 1.3429C7.12081 3.5609 8.32801 5.2857 9.40521 6.8229C9.71321 7.2629 10.0032 7.6821 10.28 8.1029C9.69472 9.1591 9.04551 10.1786 8.33601 11.1557C7.10841 12.9105 5.94841 14.5685 5.66081 16.6569C5.58621 17.2184 5.58621 17.7874 5.66081 18.3489C4.24874 18.1681 2.96255 17.4446 2.07481 16.3317ZM15.8244 21.7025C15.2546 22.2325 14.5806 22.6379 13.8453 22.8928C13.11 23.1476 12.3296 23.2463 11.554 23.1825C10.8004 23.1257 10.0666 22.9136 9.39892 22.5596C8.7312 22.2055 8.14392 21.7172 7.67401 21.1253C7.18503 20.5196 6.8246 19.8206 6.61471 19.071C6.40481 18.3214 6.34986 17.5369 6.45321 16.7653C6.71481 14.8681 7.77001 13.3597 8.99161 11.6133C10.0672 10.0753 11.2716 8.3513 11.9964 6.1333C12.7196 8.3493 13.9256 10.0733 15.0016 11.6133C16.3956 13.6073 17.6016 15.3285 17.6016 17.6533C17.5991 18.4141 17.44 19.1662 17.1342 19.8628C16.8285 20.5594 16.3826 21.1856 15.8244 21.7025ZM21.9248 16.3317C21.0418 17.4389 19.7641 18.1608 18.36 18.3457C18.3862 18.1153 18.3995 17.8836 18.4 17.6517C18.4 15.0765 17.0676 13.1717 15.6572 11.1553C14.9485 10.1801 14.3001 9.16245 13.7156 8.1081C13.9956 7.6857 14.2852 7.2645 14.5956 6.8221C15.6724 5.2845 16.8788 3.5605 17.6044 1.3421C18.328 3.5577 19.534 5.2817 20.6092 6.8193C21.8308 8.5657 22.8856 10.0741 23.148 11.9709C23.2512 12.7427 23.196 13.5275 22.9857 14.2773C22.7753 15.0271 22.4144 15.7261 21.9248 16.3317Z" fill="#FF1500"/>
<path d="M10.181 21.16C9.69322 20.904 9.26369 20.5499 8.91936 20.12C8.34079 19.4033 8.01724 18.5144 7.99976 17.5936C7.99808 17.4886 7.9552 17.3885 7.88036 17.3148C7.80553 17.2412 7.70475 17.1999 7.59976 17.2H7.59336C7.54083 17.2008 7.48898 17.212 7.44076 17.2328C7.39255 17.2537 7.34893 17.2839 7.31238 17.3216C7.27583 17.3594 7.24707 17.4039 7.22774 17.4528C7.20842 17.5016 7.19891 17.5538 7.19976 17.6064C7.21988 18.7067 7.60609 19.7689 8.29736 20.6252C8.71048 21.1403 9.22567 21.5646 9.81056 21.8712C9.85715 21.8955 9.90808 21.9104 9.96043 21.915C10.0128 21.9197 10.0655 21.9139 10.1157 21.8982C10.1658 21.8824 10.2124 21.857 10.2527 21.8232C10.293 21.7895 10.3262 21.7481 10.3506 21.7016C10.3749 21.655 10.3898 21.604 10.3944 21.5517C10.3991 21.4993 10.3933 21.4466 10.3776 21.3964C10.3618 21.3463 10.3364 21.2997 10.3026 21.2594C10.2689 21.2191 10.2276 21.1859 10.181 21.1616V21.16Z" fill="#FF1500"/>
<path d="M11.8402 21.5971C11.7866 21.5947 11.7326 21.5919 11.6802 21.5879C11.6278 21.5838 11.5751 21.59 11.5252 21.6062C11.4752 21.6224 11.4289 21.6483 11.3889 21.6824C11.349 21.7165 11.3161 21.7581 11.2922 21.8049C11.2684 21.8517 11.2539 21.9027 11.2498 21.9551C11.2456 22.0075 11.2518 22.0602 11.268 22.1101C11.2843 22.1601 11.3101 22.2064 11.3442 22.2464C11.3783 22.2863 11.42 22.3192 11.4668 22.3431C11.5136 22.3669 11.5646 22.3814 11.617 22.3855C11.6818 22.3907 11.7458 22.3939 11.8094 22.3963H11.8258C11.9319 22.3984 12.0345 22.3583 12.111 22.2848C12.1875 22.2113 12.2317 22.1104 12.2338 22.0043C12.2359 21.8982 12.1958 21.7956 12.1223 21.7191C12.0488 21.6426 11.9479 21.5984 11.8418 21.5963L11.8402 21.5971Z" fill="#FF1500"/>
<path d="M4.58111 16.36C4.09337 16.104 3.66384 15.75 3.31951 15.32C2.74093 14.6034 2.41739 13.7145 2.39991 12.7936C2.39823 12.6887 2.35534 12.5885 2.28051 12.5149C2.20568 12.4413 2.10489 12.4 1.99991 12.4H1.99351C1.94097 12.4009 1.88912 12.412 1.84091 12.4329C1.7927 12.4538 1.74907 12.484 1.71252 12.5217C1.67597 12.5594 1.64721 12.604 1.62789 12.6529C1.60857 12.7017 1.59906 12.7539 1.59991 12.8064C1.62003 13.9067 2.00624 14.9689 2.69751 15.8252C3.11063 16.3404 3.62581 16.7646 4.21071 17.0712C4.2573 17.0955 4.30823 17.1105 4.36058 17.1151C4.41293 17.1197 4.46569 17.114 4.51583 17.0983C4.56597 17.0825 4.61253 17.057 4.65283 17.0233C4.69312 16.9896 4.72638 16.9482 4.75071 16.9016C4.77503 16.855 4.78993 16.8041 4.79457 16.7518C4.79921 16.6994 4.79349 16.6466 4.77774 16.5965C4.76199 16.5464 4.73652 16.4998 4.70278 16.4595C4.66904 16.4192 4.6277 16.3859 4.58111 16.3616V16.36Z" fill="#FF1500"/>
</g>
<defs>
<clipPath id="clip0_143_273">
<rect width="24" height="24" fill="white"/>
</clipPath>
</defs>
</svg>
