<svg width="23" height="27" viewBox="0 0 23 27" fill="none" xmlns="http://www.w3.org/2000/svg">
<path d="M20.7829 24.2905C20.3073 24.2905 19.8317 24.0883 19.4694 23.6829L13.1062 16.5628C12.9109 16.3443 12.9109 15.9903 13.1062 15.7717C13.3015 15.5532 13.618 15.5532 13.8133 15.7717L20.1765 22.8918C20.5105 23.2655 21.054 23.2655 21.388 22.8918C21.5511 22.711 21.6399 22.4727 21.6399 22.2187C21.6399 21.9624 21.5496 21.7204 21.385 21.5379L15.0199 14.4162C14.8246 14.1977 14.8246 13.8436 15.0199 13.6251C15.2152 13.4065 15.5317 13.4065 15.727 13.6251L22.0906 20.7452C22.4447 21.1375 22.6405 21.6614 22.64 22.2192C22.64 22.7738 22.4456 23.2945 22.0931 23.6851C21.7327 24.0883 21.2581 24.2905 20.7829 24.2905Z" fill="#FF1500"/>
<path d="M11.5315 14.5697C11.4036 14.5697 11.2757 14.5151 11.178 14.4058L6.88038 9.59711C6.78662 9.49221 6.73389 9.34961 6.73389 9.20128C6.73389 9.05267 6.78662 8.91034 6.88087 8.80544L8.79944 6.66428C8.99477 6.44629 9.3107 6.44629 9.50603 6.66483L13.7988 11.4681C13.9941 11.6866 13.9941 12.0407 13.7988 12.2592C13.6034 12.4778 13.287 12.4778 13.0917 12.2592L9.152 7.85124L7.94148 9.2021L11.8851 13.6147C12.0804 13.8333 12.0804 14.1873 11.8851 14.4058C11.7874 14.5151 11.6595 14.5697 11.5315 14.5697Z" fill="#FF1500"/>
<path d="M4.82012 14.7122C4.69218 14.7122 4.56424 14.6576 4.46658 14.5483L0.146493 9.71472C-0.0488311 9.49617 -0.0488311 9.14214 0.146493 8.9236L1.7252 7.15723C1.83556 7.03348 1.99182 6.97366 2.14662 6.99852L3.66722 7.23208L7.38912 3.06805L7.18061 1.36643C7.15913 1.19296 7.21138 1.0184 7.32222 0.894381C7.83788 0.317705 8.52591 0 9.25935 0C9.99426 0.00710259 10.6789 0.32672 11.1916 0.900391L12.3499 2.19607C13.4149 3.38821 13.4149 5.3275 12.3499 6.51964C12.2395 6.64339 12.0823 6.70349 11.9285 6.67836L10.4079 6.44479L6.68596 10.6091L6.89446 12.3107C6.91546 12.4839 6.86321 12.6585 6.75237 12.7822L5.17366 14.5483C5.07599 14.6576 4.94806 14.7122 4.82012 14.7122ZM1.2071 9.31916L4.82012 13.3616L5.8695 12.1875L5.66099 10.4859C5.63999 10.3127 5.69224 10.1381 5.80309 10.0144L9.87609 5.45725C9.98645 5.33351 10.1432 5.27368 10.2975 5.29854L11.7986 5.5291C12.3133 4.76994 12.2615 3.67969 11.6428 2.98719L10.4845 1.69151C10.1583 1.32682 9.72178 1.1233 9.25496 1.11893C8.87261 1.11893 8.50735 1.25689 8.20753 1.51176L8.4136 3.19098C8.43509 3.36445 8.38284 3.53901 8.27199 3.66276L4.19899 8.21962C4.08863 8.34337 3.93237 8.40183 3.77757 8.37833L2.25697 8.14477L1.2071 9.31916Z" fill="#FF1500"/>
<path d="M10.2297 6.41382C10.1017 6.41382 9.97379 6.35916 9.87613 6.24985L7.56593 3.66393C7.3706 3.4453 7.3706 3.09111 7.56593 2.87247C7.76125 2.65384 8.07768 2.65384 8.273 2.87247L10.5832 5.45839C10.7785 5.67702 10.7785 6.03121 10.5832 6.24985C10.4855 6.35916 10.3576 6.41382 10.2297 6.41382Z" fill="#FF1500"/>
<path d="M6.15618 10.9714C6.02824 10.9714 5.9003 10.9168 5.80264 10.8075L3.49244 8.22155C3.29712 8.00292 3.29712 7.64873 3.49244 7.43009C3.68777 7.21145 4.00419 7.21145 4.19951 7.43009L6.50971 10.016C6.70504 10.2346 6.70504 10.5888 6.50971 10.8075C6.41205 10.9168 6.28411 10.9714 6.15618 10.9714Z" fill="#FF1500"/>
<path d="M18.0278 11.6091C17.8979 11.6091 17.7699 11.5525 17.6742 11.4452L15.7454 9.28736C15.596 9.12017 15.5564 8.86584 15.6472 8.65222L16.6932 6.18352C16.7328 6.08927 16.7953 6.00951 16.8739 5.95296L20.1485 3.58779C20.3453 3.44519 20.606 3.47552 20.773 3.66237L22.6984 5.81692C22.865 6.00322 22.8928 6.29443 22.7649 6.51598L20.651 10.1793C20.6007 10.2664 20.5299 10.3364 20.4459 10.3809L18.2426 11.5547C18.1742 11.5913 18.1005 11.6091 18.0278 11.6091ZM16.702 8.77515L18.1318 10.3746L19.8877 9.43897L21.7057 6.28869L20.3516 4.77311L17.5355 6.80664L16.702 8.77515Z" fill="#FF1500"/>
<path d="M11.4167 19.0061C11.2887 19.0061 11.1608 18.9515 11.0631 18.8422L9.13429 16.6841C9.04053 16.5792 8.98779 16.4372 8.98779 16.2886C8.98779 16.1399 9.04053 15.9979 9.13429 15.893L15.7455 8.49618C15.9409 8.27764 16.2573 8.27764 16.4526 8.49618L18.3814 10.654C18.4752 10.7589 18.5279 10.9012 18.5279 11.0496C18.5279 11.1979 18.4752 11.3402 18.3814 11.4451L11.7702 18.8422C11.6725 18.9515 11.5446 19.0061 11.4167 19.0061ZM10.1949 16.2886L11.4167 17.6555L17.3208 11.0496L16.0991 9.68286L10.1949 16.2886Z" fill="#FF1500"/>
<path d="M4.65257 26.8529C3.96552 26.8529 3.27895 26.56 2.75597 25.9754C1.71245 24.8079 1.71391 22.906 2.75988 21.7357L8.55759 15.2489C8.75292 15.0303 9.06934 15.0303 9.26467 15.2489L12.3469 18.6975C12.5422 18.916 12.5422 19.27 12.3469 19.4886L6.54917 25.9754C6.02619 26.56 5.33913 26.8529 4.65257 26.8529ZM8.91113 16.4355L3.46695 22.5268C2.81115 23.2606 2.8092 24.4527 3.46304 25.1843C4.11933 25.9175 5.18581 25.9175 5.8421 25.1843L11.2863 19.093L8.91113 16.4355Z" fill="#FF1500"/>
</svg>
